<svg width="172" height="25" viewBox="0 0 172 25" fill="none" xmlns="http://www.w3.org/2000/svg">
<path d="M0 24.2831V0.910769H10.1646C12.1951 0.910769 13.8953 1.08308 15.2653 1.42769C16.6353 1.74769 17.7361 2.32615 18.5679 3.16308C19.3997 4 19.999 5.16923 20.366 6.67077C20.7329 8.14769 20.9164 10.0554 20.9164 12.3938C20.9164 14.8308 20.7329 16.8246 20.366 18.3754C19.999 19.9262 19.3997 21.1323 18.5679 21.9938C17.7361 22.8554 16.6353 23.4585 15.2653 23.8031C13.8953 24.1231 12.1951 24.2831 10.1646 24.2831H0ZM9.32064 5.89538H5.87127V19.2985H9.32064C10.7395 19.2985 11.8526 19.1385 12.6599 18.8185C13.4917 18.4985 14.0788 17.8462 14.4213 16.8615C14.7883 15.8769 14.9717 14.3877 14.9717 12.3938C14.9717 10.4985 14.7883 9.09538 14.4213 8.18462C14.0788 7.24923 13.4917 6.63385 12.6599 6.33846C11.8526 6.04308 10.7395 5.89538 9.32064 5.89538Z" fill="white"/>
<path d="M56.1411 24.2831V5.89538H49.536V0.910769H68.6176V5.89538H62.0124V24.2831H56.1411Z" fill="white"/>
<path d="M77.059 24.2831H71.1877V0.910769H77.059V24.2831Z" fill="white"/>
<path d="M98.7927 19.2246V23.8769C97.6184 24.1231 96.4687 24.3077 95.3433 24.4308C94.218 24.5538 92.8847 24.6154 91.3435 24.6154C89.362 24.6154 87.6862 24.4431 86.3162 24.0985C84.9707 23.7538 83.8821 23.1508 83.0504 22.2892C82.2431 21.4031 81.6559 20.16 81.289 18.56C80.922 16.96 80.7385 14.9046 80.7385 12.3938C80.7385 9.98154 80.922 8 81.289 6.44923C81.6559 4.89846 82.2431 3.70461 83.0504 2.86769C83.8821 2.00615 84.9707 1.41538 86.3162 1.09538C87.6862 0.750768 89.362 0.578461 91.3435 0.578461C92.8847 0.578461 94.218 0.639999 95.3433 0.763076C96.4687 0.861538 97.6184 1.04615 98.7927 1.31692V6.11692L98.6826 6.19077C97.6551 5.94462 96.6644 5.77231 95.7103 5.67385C94.7562 5.55077 93.5819 5.48923 92.1875 5.48923C91.0622 5.48923 90.1326 5.57538 89.3987 5.74769C88.6892 5.89538 88.1266 6.20308 87.7107 6.67077C87.2948 7.13846 87.0012 7.82769 86.83 8.73846C86.6832 9.64923 86.6098 10.8677 86.6098 12.3938C86.6098 13.9938 86.6832 15.2862 86.83 16.2708C87.0012 17.2308 87.2948 17.9569 87.7107 18.4492C88.1266 18.9415 88.6892 19.2738 89.3987 19.4462C90.1326 19.6185 91.0622 19.7046 92.1875 19.7046C93.5575 19.7046 94.7195 19.6677 95.6736 19.5938C96.6521 19.4954 97.6307 19.3231 98.6092 19.0769L98.7927 19.2246Z" fill="white"/>
<path d="M101.165 12.5785C101.165 9.6 101.495 7.23692 102.155 5.48923C102.84 3.74154 104.002 2.48615 105.642 1.72308C107.305 0.959999 109.617 0.578461 112.577 0.578461C114.803 0.578461 116.65 0.787692 118.118 1.20615C119.586 1.62461 120.748 2.30154 121.604 3.23692C122.46 4.17231 123.06 5.41538 123.402 6.96615C123.769 8.49231 123.953 10.3631 123.953 12.5785C123.953 14.8185 123.769 16.7138 123.402 18.2646C123.06 19.7908 122.46 21.0215 121.604 21.9569C120.748 22.8923 119.586 23.5692 118.118 23.9877C116.65 24.4062 114.803 24.6154 112.577 24.6154C110.351 24.6154 108.504 24.4062 107.036 23.9877C105.568 23.5692 104.406 22.8923 103.55 21.9569C102.694 21.0215 102.082 19.7908 101.715 18.2646C101.348 16.7138 101.165 14.8185 101.165 12.5785ZM112.577 19.4462C114.143 19.4462 115.317 19.2492 116.1 18.8554C116.883 18.4615 117.409 17.7723 117.678 16.7877C117.947 15.7785 118.081 14.3754 118.081 12.5785C118.081 10.8062 117.947 9.42769 117.678 8.44308C117.409 7.45846 116.883 6.76923 116.1 6.37538C115.317 5.95692 114.143 5.74769 112.577 5.74769C111.036 5.74769 109.862 5.95692 109.054 6.37538C108.271 6.76923 107.733 7.45846 107.44 8.44308C107.171 9.42769 107.036 10.8062 107.036 12.5785C107.036 14.3754 107.171 15.7785 107.44 16.7877C107.733 17.7723 108.271 18.4615 109.054 18.8554C109.862 19.2492 111.036 19.4462 112.577 19.4462Z" fill="white"/>
<path d="M142.674 0.910769H148.545V24.2831H142.71L136.105 14.3877C135.591 13.6 135.163 12.9354 134.821 12.3938C134.478 11.8523 134.16 11.3108 133.867 10.7692C133.573 10.2277 133.243 9.58769 132.876 8.84923L132.766 8.99692C133.108 10.1785 133.316 11.2862 133.39 12.32C133.463 13.3292 133.5 14.3138 133.5 15.2738V24.2831H127.628V0.910769H133.463L140.068 10.8062C140.582 11.5692 141.01 12.2338 141.353 12.8C141.695 13.3415 142.013 13.8831 142.307 14.4246C142.6 14.9662 142.93 15.6062 143.297 16.3446L143.407 16.1969C143.163 15.1631 142.979 14.1662 142.857 13.2062C142.735 12.2215 142.674 11.2492 142.674 10.2892V0.910769Z" fill="white"/>
<path d="M152.377 18.2646C153.453 18.6338 154.628 18.9292 155.9 19.1508C157.196 19.3477 158.481 19.4462 159.753 19.4462C161.49 19.4462 162.774 19.3723 163.606 19.2246C164.462 19.0523 165.025 18.7938 165.294 18.4492C165.563 18.1046 165.697 17.6615 165.697 17.12C165.697 16.6523 165.6 16.2831 165.404 16.0123C165.208 15.7415 164.829 15.5323 164.266 15.3846C163.704 15.2123 162.872 15.0769 161.771 14.9785L159.349 14.7569C157.539 14.5846 156.108 14.2031 155.056 13.6123C154.028 13.0215 153.294 12.2338 152.854 11.2492C152.438 10.24 152.23 9.03385 152.23 7.63077C152.23 5.95692 152.56 4.60308 153.221 3.56923C153.906 2.53538 155.007 1.78461 156.523 1.31692C158.04 0.824614 160.058 0.578461 162.578 0.578461C165.856 0.578461 168.56 1.00923 170.688 1.87077L170.578 6.89231L170.468 7.04C168.046 6.17846 165.514 5.74769 162.872 5.74769C161.6 5.74769 160.621 5.82154 159.936 5.96923C159.251 6.09231 158.774 6.30154 158.505 6.59692C158.236 6.89231 158.101 7.31077 158.101 7.85231C158.101 8.39385 158.187 8.8 158.358 9.07077C158.554 9.34154 158.933 9.55077 159.496 9.69846C160.059 9.82154 160.878 9.94462 161.954 10.0677L164.266 10.3262C166.223 10.5477 167.728 10.9415 168.78 11.5077C169.832 12.0738 170.553 12.8369 170.945 13.7969C171.361 14.7323 171.569 15.8769 171.569 17.2308C171.569 18.88 171.214 20.2585 170.504 21.3662C169.819 22.4492 168.694 23.2615 167.128 23.8031C165.563 24.3446 163.471 24.6154 160.854 24.6154C159.141 24.6154 157.6 24.5292 156.23 24.3569C154.86 24.16 153.527 23.9015 152.23 23.5815V18.3754L152.377 18.2646Z" fill="white"/>
<path d="M47.8722 12.5C47.8722 19.4036 42.3103 25 35.4493 25C28.5883 25 23.0264 19.4036 23.0264 12.5C23.0264 5.59644 28.5883 0 35.4493 0C42.3103 0 47.8722 5.59644 47.8722 12.5Z" fill="white"/>
</svg>
